<svg id="Capa_1" data-name="Capa 1" xmlns="http://www.w3.org/2000/svg" viewBox="0 0 459.01 449.11"><defs><style>.cls-1{fill:#fff;}</style></defs><title>logon</title><path class="cls-1" d="M469.5,131.14a115.56,115.56,0,0,1-85,111.59c-40.6,11.4-80.08-5.07-112.11-29.14l-.7-.52c-43.9-31.59-87.63-63.53-131.87-94.57-7-4.92-12.7-11.43-12.7-20.39,0-9.42,6.58-17.08,15.41-19.76,10.78-3.26,18.94,1.82,27.23,8.14,8.89,6.77,17.67,13.56,26.69,20.16l28,20.5,10.65,7.8,3,2.19q22.32,16.06,44.6,32.1c23.22,16.73,44.39,36.13,75.16,33.89C395,200.41,426,168.88,426,131.32a72.37,72.37,0,0,0-66-72.06c-2.1-.19-4.21-.27-6.36-.27a72,72,0,0,0-47,17.38c-6.58,5.66-15.36,13.25-25.1,11.09-8.3-1.87-14.63-9.11-16.34-17.57-2.08-10.28,2.85-17.21,10.06-23.81a115.76,115.76,0,0,1,194.2,85.06Z" transform="translate(-10.5 -15.45)"/><path class="cls-1" d="M340.35,143.37c-44.23-31-88-63-131.87-94.58l-.71-.52c-32-24.06-71.49-40.53-112.1-29.13A115.73,115.73,0,1,0,204.89,215.79C212.09,209.18,217,202.26,215,192c-1.73-8.46-8-15.7-16.36-17.57-9.73-2.17-18.51,5.43-25.1,11.09a71.9,71.9,0,0,1-47,17.38q-3.23,0-6.36-.27a72.37,72.37,0,0,1-66-72.06c0-37.56,31-69.09,68.11-71.81,30.78-2.25,51.93,17.16,75.16,33.89q22.33,16,44.59,32.09l3,2.2,10.64,7.79,28,20.51c9,6.59,17.8,13.39,26.69,20.16,7.49,5.7,14.91,10.93,24.88,8.84,9.54-2,17.77-10.45,17.77-20.46C353.05,154.8,347.36,148.29,340.35,143.37Z" transform="translate(-10.5 -15.45)"/><path class="cls-1" d="M52.93,303.71a20.93,20.93,0,0,1,8.44,7.66,20.72,20.72,0,0,1,3.05,11.13,15.82,15.82,0,0,1-2.74,9.11,20.13,20.13,0,0,1-7.51,6.52,19.55,19.55,0,0,1,11.08,6.62q4,5,4,12.63A24.06,24.06,0,0,1,65.92,370a22.89,22.89,0,0,1-9.42,8.69,29.6,29.6,0,0,1-13.71,3.11H15.88a5.29,5.29,0,0,1-5.38-5.38V306.35a5.15,5.15,0,0,1,1.55-3.88,5.29,5.29,0,0,1,3.83-1.5H40.62A26.84,26.84,0,0,1,52.93,303.71ZM50.4,331.2c2.44-2,3.67-4.9,3.67-8.7s-1.23-6.68-3.67-8.64-5.71-2.95-9.78-2.95H21.26V334.2H40.62Q46.72,334.2,50.4,331.2Zm4.08,36.89q4.46-3.76,4.46-10.71,0-6.42-4.4-9.83t-11.75-3.42H21.26v27.74H42.79Q50,371.87,54.48,368.09Z" transform="translate(-10.5 -15.45)"/><path class="cls-1" d="M137.29,372.6a5.38,5.38,0,0,1-3.83,9.21H90.61a5.05,5.05,0,0,1-3.78-1.55,5.3,5.3,0,0,1-1.5-3.83V306.35a5.24,5.24,0,0,1,1.55-3.83A5.11,5.11,0,0,1,90.61,301,5.29,5.29,0,0,1,96,306.35V371h37.47A5.2,5.2,0,0,1,137.29,372.6Z" transform="translate(-10.5 -15.45)"/><path class="cls-1" d="M212.74,376.53a5.08,5.08,0,0,1-1.55,3.73,5.21,5.21,0,0,1-3.83,1.55,5.4,5.4,0,0,1-3-.88,5,5,0,0,1-2-2.43L196.59,364,193,355.1l-14.8-36.84L163.06,355.1,159.43,364l-5.89,14.49a5.8,5.8,0,0,1-2.07,2.43,5.2,5.2,0,0,1-2.9.88,5,5,0,0,1-3.78-1.6,5.36,5.36,0,0,1-1.5-3.79,6.66,6.66,0,0,1,.52-2.37l29.08-69.46Q174.45,301,178,301a5,5,0,0,1,5.07,3.62l29.19,69.66A6.69,6.69,0,0,1,212.74,376.53Z" transform="translate(-10.5 -15.45)"/><path class="cls-1" d="M280.64,302.47a5.3,5.3,0,0,1,3.83-1.5,5.12,5.12,0,0,1,3.78,1.5,5.26,5.26,0,0,1,1.5,3.88v70.08a5.26,5.26,0,0,1-1.5,3.88,5.12,5.12,0,0,1-3.78,1.5,6.37,6.37,0,0,1-2.33-.47,3.72,3.72,0,0,1-1.81-1.39l-45.13-60v56.52a5.3,5.3,0,0,1-1.5,3.83,5.57,5.57,0,0,1-7.66.05,5.26,5.26,0,0,1-1.5-3.88V306.35a5.26,5.26,0,0,1,1.5-3.88,5.12,5.12,0,0,1,3.78-1.5,5.06,5.06,0,0,1,2.28.57,6,6,0,0,1,1.86,1.4l45.13,60V306.35A5.18,5.18,0,0,1,280.64,302.47Z" transform="translate(-10.5 -15.45)"/><path class="cls-1" d="M360.29,302a40.82,40.82,0,0,1,11.64,6.83,4.94,4.94,0,0,1,1.66,1.91,6.14,6.14,0,0,1,.41,2.33,4.4,4.4,0,0,1-1.5,3.42,5,5,0,0,1-3.47,1.34,5.59,5.59,0,0,1-3.62-1.34,30.05,30.05,0,0,0-8.28-5.23,28.69,28.69,0,0,0-10.45-1.6,27.45,27.45,0,0,0-14.86,4.24,30.67,30.67,0,0,0-10.76,11.54,33.74,33.74,0,0,0,0,31.83,30.74,30.74,0,0,0,10.76,11.49A27.45,27.45,0,0,0,346.68,373q9.93,0,19-6.83a5.92,5.92,0,0,1,3.42-1.24,4.24,4.24,0,0,1,3.26,1.4,5.53,5.53,0,0,1-.37,7.5,39.33,39.33,0,0,1-25.35,9,38.62,38.62,0,0,1-20.24-5.48,39.45,39.45,0,0,1-14.44-15,42.6,42.6,0,0,1-5.28-21A42.14,42.14,0,0,1,312,320.48a40,40,0,0,1,14.44-15,38.38,38.38,0,0,1,20.24-5.53A40.21,40.21,0,0,1,360.29,302Z" transform="translate(-10.5 -15.45)"/><path class="cls-1" d="M449.51,305.22a37.34,37.34,0,0,1,14.59,14.69,46.62,46.62,0,0,1,0,42.91,37.37,37.37,0,0,1-14.54,14.75,45.88,45.88,0,0,1-42.7,0,37,37,0,0,1-14.54-14.75,47.1,47.1,0,0,1,0-42.91,37,37,0,0,1,14.54-14.69,45.7,45.7,0,0,1,42.65,0Zm-37.16,8.59a29.09,29.09,0,0,0-10.92,11.38,35.15,35.15,0,0,0,0,32.3,29.33,29.33,0,0,0,11,11.43,32,32,0,0,0,31.67,0,29.33,29.33,0,0,0,11-11.43,35.07,35.07,0,0,0,0-32.3,29.09,29.09,0,0,0-10.92-11.38,32.55,32.55,0,0,0-31.77,0Z" transform="translate(-10.5 -15.45)"/><path class="cls-1" d="M142.23,420.92a21.06,21.06,0,0,1,8.19,8.16,25.47,25.47,0,0,1,0,23.76,21,21,0,0,1-8.19,8.18,23.86,23.86,0,0,1-11.89,3h-10.6A1.7,1.7,0,0,1,118,462.2V419.75a1.7,1.7,0,0,1,.49-1.3,1.81,1.81,0,0,1,1.27-.47h10.6A23.85,23.85,0,0,1,142.23,420.92Zm-1.82,37.3a18.21,18.21,0,0,0,6.92-7.09,20.73,20.73,0,0,0,2.5-10.19,20.5,20.5,0,0,0-2.5-10.15,18.3,18.3,0,0,0-6.92-7.07,19.69,19.69,0,0,0-10.07-2.56h-8.83v39.62h8.83A19.69,19.69,0,0,0,140.41,458.22Z" transform="translate(-10.5 -15.45)"/><path class="cls-1" d="M163.28,418.48a1.86,1.86,0,0,1,2.54,0,1.72,1.72,0,0,1,.5,1.27V462.2a1.77,1.77,0,1,1-3.54,0V419.75A1.72,1.72,0,0,1,163.28,418.48Z" transform="translate(-10.5 -15.45)"/><path class="cls-1" d="M199.23,419.45a14.14,14.14,0,0,1,5.3,4.94,1.86,1.86,0,0,1,.24.95,1.41,1.41,0,0,1-.27.85,1.85,1.85,0,0,1-.73.62,1.65,1.65,0,0,1-.71.12,1.88,1.88,0,0,1-1.65-.88,11.41,11.41,0,0,0-10.07-5.13q-4.89,0-7.62,2.21a7.46,7.46,0,0,0-2.74,6.15,6.9,6.9,0,0,0,2.71,5.54q2.7,2.24,8.36,3.18c4.94.82,8.56,2.35,10.83,4.56a11.65,11.65,0,0,1,3.42,8.75,13.48,13.48,0,0,1-1.8,7.06,11.74,11.74,0,0,1-5.06,4.59,17.1,17.1,0,0,1-7.57,1.59,19.41,19.41,0,0,1-9.6-2.26,14.59,14.59,0,0,1-6.06-6.22,1.52,1.52,0,0,1-.18-.7,1.58,1.58,0,0,1,.5-1.18,1.89,1.89,0,0,1,1.33-.47,1.78,1.78,0,0,1,1.71,1.12,10.87,10.87,0,0,0,4.73,4.56,16.42,16.42,0,0,0,7.57,1.62q5.07,0,8-2.53a9,9,0,0,0,2.91-7.18,8.63,8.63,0,0,0-2.85-6.63c-1.91-1.75-4.72-2.87-8.45-3.38q-6.54-.94-10.28-4.27a10.46,10.46,0,0,1-3.74-8.1,10.64,10.64,0,0,1,1.74-6,11.38,11.38,0,0,1,4.89-4.07,17.31,17.31,0,0,1,7.27-1.44A15.59,15.59,0,0,1,199.23,419.45Z" transform="translate(-10.5 -15.45)"/><path class="cls-1" d="M247.34,461a1.73,1.73,0,0,1,.53,1.24,1.7,1.7,0,0,1-.53,1.27,1.76,1.76,0,0,1-1.24.5H217.78A1.71,1.71,0,0,1,216,462.2V419.75a1.72,1.72,0,0,1,.5-1.27,1.75,1.75,0,0,1,1.27-.5H246.1a1.76,1.76,0,0,1,1.24.5,1.67,1.67,0,0,1,.53,1.27,1.69,1.69,0,0,1-.53,1.23,1.71,1.71,0,0,1-1.24.53H219.55v17.67H239a1.71,1.71,0,0,1,1.76,1.76,1.85,1.85,0,0,1-.5,1.3,1.66,1.66,0,0,1-1.26.53H219.55v17.66H246.1A1.71,1.71,0,0,1,247.34,461Z" transform="translate(-10.5 -15.45)"/><path class="cls-1" d="M289.94,418.48a1.71,1.71,0,0,1,1.26-.5,1.75,1.75,0,0,1,1.24.5,1.67,1.67,0,0,1,.53,1.27V462.2a1.7,1.7,0,0,1-.53,1.27,1.75,1.75,0,0,1-1.24.5,1.61,1.61,0,0,1-1.29-.54l-30-39V462.2a1.77,1.77,0,1,1-3.53,0V419.75a1.71,1.71,0,0,1,.49-1.27,1.75,1.75,0,0,1,1.27-.5,1.77,1.77,0,0,1,1.36.59l29.91,38.92V419.75A1.68,1.68,0,0,1,289.94,418.48Zm-15.25-11.72a21.25,21.25,0,0,1,2.62,1.44,16.07,16.07,0,0,0,1.91,1.15,3.82,3.82,0,0,0,1.68.32,4.3,4.3,0,0,0,3.24-1.29,2.11,2.11,0,0,1,1.65-.82,1,1,0,0,1,.64.17,1.61,1.61,0,0,1,1.07,1.42,1.54,1.54,0,0,1-.36.94,7.44,7.44,0,0,1-6.24,3,7,7,0,0,1-2.89-.56,19,19,0,0,1-2.65-1.5,9.36,9.36,0,0,0-1.88-1.09,4.3,4.3,0,0,0-1.47-.27,6.05,6.05,0,0,0-4.53,2.42,1.76,1.76,0,0,1-1.48.71,1.38,1.38,0,0,1-.88-.24,1.54,1.54,0,0,1-.88-1.35,1.45,1.45,0,0,1,.35-1,12.2,12.2,0,0,1,3.5-2.92,8.26,8.26,0,0,1,3.92-1A6.74,6.74,0,0,1,274.69,406.76Z" transform="translate(-10.5 -15.45)"/><path class="cls-1" d="M338,420.48a22.63,22.63,0,0,1,8.48,8.48,24.88,24.88,0,0,1,0,24,22.56,22.56,0,0,1-8.48,8.48,24.9,24.9,0,0,1-24,0,22.49,22.49,0,0,1-8.48-8.48,24.88,24.88,0,0,1,0-24,22.56,22.56,0,0,1,8.48-8.48,24.9,24.9,0,0,1,24,0Zm-22.23,3.06a19,19,0,0,0-7.21,7.22,21.15,21.15,0,0,0,0,20.43,19,19,0,0,0,7.21,7.21,21.22,21.22,0,0,0,20.43,0,19,19,0,0,0,7.21-7.21,21.22,21.22,0,0,0,0-20.43,19,19,0,0,0-7.21-7.22,21.22,21.22,0,0,0-20.43,0Z" transform="translate(-10.5 -15.45)"/><path class="cls-1" d="M380.11,419.45a14.14,14.14,0,0,1,5.3,4.94,1.86,1.86,0,0,1,.24.95,1.41,1.41,0,0,1-.27.85,1.78,1.78,0,0,1-.73.62,1.62,1.62,0,0,1-.71.12,1.88,1.88,0,0,1-1.65-.88,11.4,11.4,0,0,0-10.07-5.13q-4.89,0-7.62,2.21a7.46,7.46,0,0,0-2.74,6.15,6.9,6.9,0,0,0,2.71,5.54q2.7,2.24,8.36,3.18c4.95.82,8.56,2.35,10.83,4.56a11.65,11.65,0,0,1,3.42,8.75,13.48,13.48,0,0,1-1.8,7.06,11.68,11.68,0,0,1-5.06,4.59,17.1,17.1,0,0,1-7.57,1.59,19.41,19.41,0,0,1-9.6-2.26,14.64,14.64,0,0,1-6.06-6.22,1.52,1.52,0,0,1-.18-.7,1.58,1.58,0,0,1,.5-1.18,1.89,1.89,0,0,1,1.33-.47,1.78,1.78,0,0,1,1.71,1.12,10.89,10.89,0,0,0,4.74,4.56,16.35,16.35,0,0,0,7.56,1.62q5.07,0,8-2.53a9,9,0,0,0,2.92-7.18,8.6,8.6,0,0,0-2.86-6.63c-1.9-1.75-4.72-2.87-8.45-3.38q-6.54-.94-10.27-4.27a10.43,10.43,0,0,1-3.74-8.1,10.71,10.71,0,0,1,1.73-6,11.38,11.38,0,0,1,4.89-4.07,17.34,17.34,0,0,1,7.27-1.44A15.59,15.59,0,0,1,380.11,419.45Z" transform="translate(-10.5 -15.45)"/></svg>